<?xml version="1.0" encoding="utf-8"?>
<!DOCTYPE svg PUBLIC "-//W3C//DTD SVG 1.1//EN" "http://www.w3.org/Graphics/SVG/1.1/DTD/svg11.dtd">
<svg version="1.1" id="VARG" xmlns="http://www.w3.org/2000/svg" xmlns:xlink="http://www.w3.org/1999/xlink" x="0px" y="0px"
 width="306px" height="44px" viewBox="0 0 306 44" enable-background="new 0 0 306 44" xml:space="preserve">
<g>
<g>
<g>
<path fill="black" d="M186.808,14.146c0-2.418-3.917-2.607-5.602-2.607h-5.138l-3.496,12.497h3.833l1.095-4.386
C181.38,19.649,186.808,19.265,186.808,14.146z M182.386,15.925c-0.438,0.86-1.653,1.406-2.612,1.406h-1.347l0.842-3.723h1.053
c0.947,0,2.233,0.299,2.233,1.447L182.386,15.925z"/>
<polygon fill="black" points="164.863,20.476 170.086,20.476 170.802,17.869 165.538,17.869 "/>
<polygon fill="black" points="224.252,19.441 223.789,11.538 218.313,11.538 215.365,24.035 218.439,24.035 220.714,15.097 221.178,24.035 
224.8,24.035 229.685,15.097 227.663,24.035 231.075,24.035 234.023,11.538 228.464,11.538 "/>
<path fill="black" d="M192.916,11.538c-3.228,4.074-6.112,8.397-9.309,12.497h4.548l2.402-3.559h4.843l0.548,3.559h4.464
c-0.263-0.271-2.408-11.32-2.526-12.497H192.916z M192.115,17.786l2.527-3.476l0.506,3.476H192.115z"/>
<polygon fill="black" points="209.679,11.538 205.467,11.538 202.519,24.035 212.754,24.035 213.427,21.344 207.404,21.344 "/>
<path fill="black" d="M115.078,16.752l-0.589,2.689h1.6l-0.462,1.902c-0.258,0.247-1.326,0.332-1.686,0.332c-1.694,0-3.243-0.541-3.243-2.483
c0-3.202,2.862-5.006,5.854-5.006c1.481,0,2.677,0.441,4.086,0.704l0.463-3.022c-1.603-0.078-3.15-0.577-4.802-0.577
c-4.847,0-9.688,3.067-9.688,8.233c0,2.98,2.364,4.84,5.307,4.84h2.106c1.681,0,3.472-0.319,5.139-0.537l1.601-7.076H115.078z"/>
<path fill="black" d="M74.561,14.187c1.084,0,2.045,0.37,3.074,0.456l0.337-2.896c-1.115-0.136-2.292-0.455-3.411-0.455
c-4.815,0-9.562,2.996-9.562,8.11c0,3.037,2.632,4.964,5.602,4.964h1.475c0.939,0,2.15-0.164,3.074-0.33l1.011-3.021
c-0.99,0.216-2.055,0.456-3.075,0.456h-1.474c-1.462,0-2.485-1.263-2.485-2.606C69.126,15.976,71.804,14.187,74.561,14.187z"/>
<polygon fill="black" points="150.753,24.035 161.579,24.035 162.126,21.344 155.555,21.344 156.104,19.111 161.705,19.111 162.252,16.421 
156.692,16.421 157.24,14.187 163.853,14.187 164.527,11.538 153.744,11.538 "/>
<polygon fill="black" points="151.513,11.538 139.003,11.538 138.455,14.187 142.54,14.187 140.266,24.035 144.352,24.035 146.71,14.187 
150.795,14.187 "/>
<path fill="black" d="M87.448,11.291c-4.844,0-9.687,3.136-9.687,8.275c0,3.003,2.938,4.799,5.77,4.799h1.643c3.642,0,6.96-2.256,8.171-5.585
c0.192-0.528,0.505-1.21,0.505-1.779v-1.406C93.851,12.559,89.985,11.291,87.448,11.291z M89.639,17.249
c0,0.088-0.188,0.69-0.225,0.814c-0.446,1.532-1.054,2.485-2.626,3.103c-0.343,0.135-0.819,0.303-1.193,0.303h-1.18
c-1.437,0-2.485-1.266-2.485-2.606c0-2.619,2.183-4.676,4.802-4.676c1.169,0,1.818,0.413,2.528,1.284
c0.146,0.179,0.184,0.447,0.378,0.909V17.249z"/>
<path fill="black" d="M134.664,11.538h-5.012c-2.866,4.232-6.072,8.456-9.224,12.497h4.548l2.402-3.559h4.885l0.59,3.559l4.389-0.004
c-0.054-0.435-0.337-1.306-0.431-1.735C136.307,19.979,134.769,13.571,134.664,11.538z M128.978,17.786l2.401-3.476l0.674,3.476
H128.978z"/>
<polygon fill="black" points="101.601,11.538 97.557,11.538 94.608,24.035 104.676,24.035 105.349,21.344 99.368,21.344 "/>
<polygon fill="black" points="264.434,24.035 268.519,24.035 271.467,11.538 267.383,11.538 "/>
<path fill="black" d="M285.114,11.538l-6.148,9.351l-1.138-9.351h-4.297c0.137,3.215,1.487,6.411,1.813,9.601l0.335,2.896h4.887
c3.064-4.1,5.78-8.488,8.97-12.497H285.114z"/>
<polygon fill="black" points="258.494,11.538 254.41,11.538 251.461,24.035 261.697,24.035 262.244,21.344 256.22,21.344 "/>
<polygon fill="black" points="288.736,24.035 299.52,24.035 300.194,21.344 293.497,21.344 294.044,19.111 299.645,19.111 300.194,16.421 
294.634,16.421 295.181,14.187 301.794,14.187 302.467,11.538 291.685,11.538 "/>
<path fill="black" d="M244.385,11.291c-4.573,0-9.603,3.041-9.603,7.985c0,3.176,2.587,5.088,5.728,5.088h1.643
c3.795,0,8.634-3.306,8.634-7.364v-1.406C250.787,12.501,246.961,11.291,244.385,11.291z M242.531,21.469h-1.137
c-1.044,0-2.443-1.064-2.443-2.152v-0.91c0-1.318,1.503-3.314,2.696-3.847c0.586-0.263,1.384-0.373,2.021-0.373
c1.079,0,2.111,0.422,2.864,1.903c-0.037,0.254,0.084,0.593,0.084,0.869C246.617,19.032,244.816,21.469,242.531,21.469z"/>
</g>
</g>
<g>
<g>
<path fill="#007AC2" d="M2.469,17.081c0,0,0.395-14.323,16.764-14.521h12.276l-2.751,12.133l-10.127,0.036
c-3.375,0.025-4.019,2.798-4.019,2.798s-0.197,2.92,3.036,3.252l9.729,0.004L24.58,33.119l-5.677,0.017
C1.941,32.789,2.469,17.081,2.469,17.081z M56.789,17.081c0,0-0.726-14.323-17.095-14.521H34.48l-2.727,12.133l8.544,0.036
c3.374,0.025,4.018,2.798,4.018,2.798s0.197,2.92-3.037,3.252l-10.917,0.004l-4.726,20.521l11.551,0.011l1.913-8.182l0.924,0.002
C56.987,32.789,56.789,17.081,56.789,17.081z"/>
</g>
</g>
</g>
</svg>